<?xml version="1.0" encoding="utf-8"?>
<!-- Generator: Adobe Illustrator 22.0.1, SVG Export Plug-In . SVG Version: 6.00 Build 0)  -->
<svg version="1.1" id="Layer_1" xmlns="http://www.w3.org/2000/svg" xmlns:xlink="http://www.w3.org/1999/xlink" x="0px" y="0px"
	 viewBox="0 0 100 125" style="enable-background:new 0 0 100 125;" xml:space="preserve">
<style type="text/css">
	.st0{fill:#FF3300;}
	.st1{font-family:'HelveticaNeue-Bold';}
	.st2{font-size:5px;}
</style>
<path class="st0" d="M40.6,94c-4.9-2.9-8.4-8-8.6-14c-0.3-11.2,7.5-16.7,12.1-24.2c6.6-10.8,4.8-17.5,4.8-17.5s5.5,3.1,8.7,14.6
	c1,3.4,1.2,6.8,0.9,10c-0.5,8.1-4,15.4-4,15.4s6.1-1.3,7.8-12.4c2.8,2.9,5.4,7.1,5.7,11.5C68.5,85,64,92,57.2,95
	C69,92.3,77.4,82.3,80.3,75c3.7-9.2,2.7-17.4,2.1-24.5C81.6,40.8,85,33.6,85,33.6s-6.5,1.9-11.3,9.8c-2.2,3.6-3.1,8.9-3.1,8.9
	S71.1,47.6,68,39c-3.1-8.4-5.9-11.4-7.6-17.6C58.2,13.1,63.1,5,63.1,5S43.7,8.6,34.9,25.5c-7.8,15-4.6,24-4.6,24s-3.3-3.1-5-7.4
	S24,33.9,24,33.9s-13.8,15.2-7.1,34.3C21.4,81.6,30.1,90.4,40.6,94z"/>
<text transform="matrix(1 0 0 1 0 115)" class="st1 st2">Created by Bohdan Burmich</text>
<text transform="matrix(1 0 0 1 0 120)" class="st1 st2">from the Noun Project</text>
</svg>
