<?xml version="1.0" encoding="utf-8"?>
<!-- Generator: Adobe Illustrator 22.0.1, SVG Export Plug-In . SVG Version: 6.00 Build 0)  -->
<svg version="1.1"
	 id="svg3013" inkscape:version="0.48.3.1 r9886" sodipodi:docname="step_forward_font_awesome.svg" xmlns:cc="http://creativecommons.org/ns#" xmlns:dc="http://purl.org/dc/elements/1.1/" xmlns:inkscape="http://www.inkscape.org/namespaces/inkscape" xmlns:rdf="http://www.w3.org/1999/02/22-rdf-syntax-ns#" xmlns:sodipodi="http://sodipodi.sourceforge.net/DTD/sodipodi-0.dtd" xmlns:svg="http://www.w3.org/2000/svg"
	 xmlns="http://www.w3.org/2000/svg" xmlns:xlink="http://www.w3.org/1999/xlink" x="0px" y="0px" viewBox="0 0 792 612"
	 style="enable-background:new 0 0 792 612;" xml:space="preserve">
<sodipodi:namedview  bordercolor="#666666" borderopacity="1" gridtolerance="10" guidetolerance="10" id="namedview3019" inkscape:current-layer="svg3013" inkscape:cx="896" inkscape:cy="896" inkscape:pageopacity="0" inkscape:pageshadow="2" inkscape:window-height="480" inkscape:window-maximized="0" inkscape:window-width="640" inkscape:window-x="0" inkscape:window-y="25" inkscape:zoom="0.13169643" objecttolerance="10" pagecolor="#ffffff" showgrid="false">
	</sodipodi:namedview>
<g id="g3015" transform="matrix(1,0,0,-1,379.66102,1300.6102)">
	<path id="path3017" inkscape:connector-curvature="0" d="M-68.1,972.2c-1.8,2-3.3,4.2-4.4,6.5V747.1c0-5.9-2.2-11-6.5-15.4
		c-4.3-4.3-9.4-6.5-15.4-6.5h-43.7c-5.9,0-11,2.2-15.4,6.5c-4.3,4.3-6.5,9.4-6.5,15.4V1228c0,5.9,2.2,11,6.5,15.4
		c4.3,4.3,9.4,6.5,15.4,6.5h43.7c5.9,0,11-2.2,15.4-6.5c4.3-4.3,6.5-9.4,6.5-15.4V996.5c1.1,2.5,2.6,4.7,4.4,6.5l242.5,242.5
		c4.3,4.3,8,5.8,10.9,4.4s4.4-5,4.4-10.9V736.2c0-5.9-1.5-9.6-4.4-10.9c-3-1.4-6.6,0.1-10.9,4.4L-68.1,972.2z"/>
</g>
</svg>
